<svg width="41" height="43" viewBox="0 0 41 43" fill="none" xmlns="http://www.w3.org/2000/svg">
<rect x="0.755859" y="0.77417" width="40" height="41.2571" rx="6" fill="#B8B8B8"/>
<g clip-path="url(#clip0_13_1501)">
<path d="M27.4067 30.6311C27.4067 34.068 24.4631 36.9147 20.7555 36.9147C17.0479 36.9147 14.1043 34.068 14.1043 30.6311C14.1043 27.1941 17.0479 24.3475 20.7555 24.3475C24.4631 24.3475 27.4067 27.1941 27.4067 30.6311Z" fill="#FBFBFB" stroke="#424242" stroke-width="1.4"/>
<path d="M19.97 33.2237C19.8973 33.2237 19.8266 33.2005 19.769 33.1568L17.3574 31.324C17.2189 31.2186 17.1964 31.0265 17.3073 30.8948C17.4189 30.7632 17.6208 30.7418 17.7594 30.8472L19.9031 32.4765L23.0828 28.1615C23.1844 28.0228 23.3851 27.9899 23.5307 28.0864C23.6764 28.1832 23.7114 28.3735 23.6098 28.5119L20.2336 33.0939C20.1828 33.1632 20.1041 33.209 20.016 33.2213C20.0005 33.2228 19.9851 33.2237 19.97 33.2237Z" fill="#424242" stroke="#424242"/>
</g>
<g clip-path="url(#clip1_13_1501)">
<path d="M34.3131 22.4883H31.8703C31.42 22.4883 31.056 22.1243 31.056 21.674C31.056 21.2237 31.42 20.8597 31.8703 20.8597H34.3131C34.7626 20.8597 35.1274 20.4949 35.1274 20.0454V11.9026C35.1274 11.4531 34.7626 11.0883 34.3131 11.0883H6.62743C6.17794 11.0883 5.81314 11.4531 5.81314 11.9026V20.0454C5.81314 20.4949 6.17794 20.8597 6.62743 20.8597H9.07028C9.52058 20.8597 9.88457 21.2237 9.88457 21.674C9.88457 22.1243 9.52058 22.4883 9.07028 22.4883H6.62743C5.2806 22.4883 4.18457 21.3923 4.18457 20.0454V11.9026C4.18457 10.5557 5.2806 9.45972 6.62743 9.45972H34.3131C35.66 9.45972 36.756 10.5557 36.756 11.9026V20.0454C36.756 21.3923 35.66 22.4883 34.3131 22.4883Z" fill="#424242"/>
<path d="M18.8418 18.4169C18.6334 18.4169 18.4249 18.3371 18.2661 18.1783C17.9477 17.8599 17.9477 17.3453 18.2661 17.0269L21.5233 13.7697C21.8417 13.4513 22.3563 13.4513 22.6747 13.7697C22.9931 14.0881 22.9931 14.6027 22.6747 14.9211L19.4175 18.1783C19.2587 18.3371 19.0503 18.4169 18.8418 18.4169Z" fill="#424242"/>
<path d="M22.099 18.4169C21.8905 18.4169 21.6821 18.3371 21.5233 18.1783L18.2661 14.9211C17.9477 14.6027 17.9477 14.0881 18.2661 13.7697C18.5845 13.4513 19.0991 13.4513 19.4175 13.7697L22.6747 17.0269C22.9931 17.3453 22.9931 17.8599 22.6747 18.1783C22.5159 18.3371 22.3074 18.4169 22.099 18.4169Z" fill="#424242"/>
<path d="M26.1704 18.4169C25.962 18.4169 25.7535 18.3371 25.5947 18.1783C25.2764 17.8599 25.2764 17.3453 25.5947 17.0269L28.8519 13.7697C29.1703 13.4513 29.6849 13.4513 30.0033 13.7697C30.3217 14.0881 30.3217 14.6027 30.0033 14.9211L26.7461 18.1783C26.5874 18.3371 26.3789 18.4169 26.1704 18.4169Z" fill="#424242"/>
<path d="M29.4276 18.4169C29.2191 18.4169 29.0107 18.3371 28.8519 18.1783L25.5947 14.9211C25.2764 14.6027 25.2764 14.0881 25.5947 13.7697C25.9131 13.4513 26.4278 13.4513 26.7461 13.7697L30.0033 17.0269C30.3217 17.3453 30.3217 17.8599 30.0033 18.1783C29.8445 18.3371 29.636 18.4169 29.4276 18.4169Z" fill="#424242"/>
<path d="M11.5132 18.4169C11.3048 18.4169 11.0963 18.3371 10.9375 18.1783C10.6191 17.8599 10.6191 17.3453 10.9375 17.0269L14.1947 13.7697C14.513 13.4513 15.0277 13.4513 15.3461 13.7697C15.6644 14.0881 15.6644 14.6027 15.3461 14.9211L12.0889 18.1783C11.9301 18.3371 11.7217 18.4169 11.5132 18.4169Z" fill="#424242"/>
<path d="M14.7704 18.4169C14.5619 18.4169 14.3534 18.3371 14.1947 18.1783L10.9375 14.9211C10.6191 14.6027 10.6191 14.0881 10.9375 13.7697C11.2559 13.4513 11.7705 13.4513 12.0889 13.7697L15.3461 17.0269C15.6644 17.3453 15.6644 17.8599 15.3461 18.1783C15.1873 18.3371 14.9788 18.4169 14.7704 18.4169Z" fill="#424242"/>
</g>
<defs>
<clipPath id="clip0_13_1501">
<rect width="14.8571" height="14.1143" fill="white" transform="translate(13.3271 23.574)"/>
</clipPath>
<clipPath id="clip1_13_1501">
<rect width="32.5714" height="13.0286" fill="white" transform="translate(4.18457 9.45972)"/>
</clipPath>
</defs>
</svg>
