<svg width="45" height="45" viewBox="0 0 45 45" fill="none" xmlns="http://www.w3.org/2000/svg">
<path d="M0 22.7742C0 10.6239 9.84974 0.77417 22 0.77417H23C35.1503 0.77417 45 10.6239 45 22.7742C45 34.9244 35.1503 44.7742 23 44.7742H22C9.84973 44.7742 0 34.9244 0 22.7742Z" fill="#C2C2C2"/>
<path d="M12.4875 30.5698L15.8456 25.5948C12.6119 25.9928 10 23.3312 10 20.2467C10 17.1622 12.3631 14.7742 15.7213 14.7742C19.0794 14.7742 21.4425 17.1622 21.4425 20.2467C21.4425 21.3163 21.0694 22.3113 20.6962 23.0327C20.4724 23.4555 20.2236 23.8535 19.95 24.2267C19.2286 25.2963 18.159 26.8634 17.2386 28.1818C16.6914 28.9529 16.1441 29.7489 15.5969 30.5698H12.4875ZM15.7213 23.1073C17.1889 23.1073 18.4575 21.8387 18.4575 20.2467C18.4575 18.6547 17.1889 17.386 15.7213 17.386C14.2039 17.386 12.985 18.6547 12.985 20.2467C12.985 21.8387 14.2039 23.1073 15.7213 23.1073Z" fill="black"/>
<path d="M29.6396 17.6348C27.8983 17.6348 26.1571 19.376 26.1571 22.7342C26.1571 26.0923 27.8983 27.8335 29.6396 27.8335C31.3808 27.8335 33.1221 26.0923 33.1221 22.7342C33.1221 19.376 31.3808 17.6348 29.6396 17.6348ZM29.6396 14.7742C33.1221 14.7742 36.1071 17.7592 36.1071 22.7342C36.1071 27.7092 33.1221 30.6942 29.6396 30.6942C26.1571 30.6942 23.1721 27.7092 23.1721 22.7342C23.1721 17.7592 26.1571 14.7742 29.6396 14.7742Z" fill="black"/>
</svg>
