<svg width="50" height="36" viewBox="0 0 50 36" fill="none" xmlns="http://www.w3.org/2000/svg">
<g clip-path="url(#clip0_13_3276)">
<path d="M6.02253 2.52417H42.2892C44.228 2.52417 45.8059 4.10198 45.8059 6.04084V29.5075C45.8059 31.4464 44.2281 33.0242 42.2892 33.0242H6.02253C4.08367 33.0242 2.50586 31.4464 2.50586 29.5075V6.04084C2.50586 4.10198 4.08367 2.52417 6.02253 2.52417Z" fill="white" stroke="#424446" stroke-width="1.5"/>
<path d="M41.2892 0.77417H5.02253C2.66946 0.77417 0.755859 2.68777 0.755859 5.04084V28.5075C0.755859 30.8606 2.66946 32.7742 5.02253 32.7742H41.2892C43.6423 32.7742 45.5559 30.8606 45.5559 28.5075V5.04084C45.5559 2.68777 43.6423 0.77417 41.2892 0.77417Z" fill="#C0C0C0"/>
<path d="M13.5563 13.5745H7.15628C5.97975 13.5745 5.02295 12.6177 5.02295 11.4412V8.24118C5.02295 7.06465 5.97975 6.10785 7.15628 6.10785H13.5563C14.7328 6.10785 15.6896 7.06465 15.6896 8.24118V11.4412C15.6896 12.6177 14.7328 13.5745 13.5563 13.5745ZM7.15628 8.24118V11.4412H13.5563V8.24118H7.15628Z" fill="#424242"/>
<path d="M11.4229 21.0406H6.08962C5.49975 21.0406 5.02295 20.5638 5.02295 19.9739C5.02295 19.384 5.49975 18.9072 6.08962 18.9072H11.4229C12.0128 18.9072 12.4896 19.384 12.4896 19.9739C12.4896 20.5638 12.0128 21.0406 11.4229 21.0406Z" fill="#424242"/>
<path d="M17.823 27.4408H6.08962C5.49975 27.4408 5.02295 26.964 5.02295 26.3741C5.02295 25.7842 5.49975 25.3074 6.08962 25.3074H17.823C18.4128 25.3074 18.8896 25.7842 18.8896 26.3741C18.8896 26.964 18.4128 27.4408 17.823 27.4408Z" fill="#424242"/>
<path d="M21.0226 21.0406H15.6892C15.0994 21.0406 14.6226 20.5638 14.6226 19.9739C14.6226 19.384 15.0994 18.9072 15.6892 18.9072H21.0226C21.6124 18.9072 22.0892 19.384 22.0892 19.9739C22.0892 20.5638 21.6124 21.0406 21.0226 21.0406Z" fill="#424242"/>
<path d="M28.8987 20.7742H24.613C24.139 20.7742 23.7559 20.3272 23.7559 19.7742C23.7559 19.2212 24.139 18.7742 24.613 18.7742H28.8987C29.3727 18.7742 29.7559 19.2212 29.7559 19.7742C29.7559 20.3272 29.3727 20.7742 28.8987 20.7742Z" fill="#424242"/>
</g>
<path d="M40.7559 35.7742C40.6439 35.7742 40.5299 35.7552 40.4229 35.7172C40.0689 35.5922 31.7559 32.5762 31.7559 25.3622V19.7742C31.7559 17.5682 33.5499 15.7742 35.7559 15.7742H45.7559C47.9619 15.7742 49.7559 17.5682 49.7559 19.7742V25.3622C49.7559 32.5762 41.4429 35.5922 41.0889 35.7172C40.9819 35.7552 40.8679 35.7742 40.7559 35.7742ZM35.7559 17.7742C34.6529 17.7742 33.7559 18.6712 33.7559 19.7742V25.3622C33.7559 30.4522 39.3189 33.1002 40.7549 33.6992C42.1889 33.0972 47.7559 30.4342 47.7559 25.3622V19.7742C47.7559 18.6712 46.8589 17.7742 45.7559 17.7742H35.7559Z" fill="#424242"/>
<path d="M35.7559 17.7742C34.6529 17.7742 33.7559 18.6712 33.7559 19.7742V25.3622C33.7559 30.4522 39.3189 33.1002 40.7549 33.6992C42.1889 33.0972 47.7559 30.4342 47.7559 25.3622V19.7742C47.7559 18.6712 46.8589 17.7742 45.7559 17.7742H35.7559Z" fill="white"/>
<defs>
<clipPath id="clip0_13_3276">
<rect width="46" height="33" fill="white" transform="translate(0.755859 0.77417)"/>
</clipPath>
</defs>
</svg>
