<svg width="46" height="43" viewBox="0 0 46 43" fill="none" xmlns="http://www.w3.org/2000/svg">
<g clip-path="url(#clip0_13_3306)">
<path d="M36.0063 0.77417H5.10013C2.28826 0.77417 0 3.27524 0 6.34946V28.6506C0 31.7248 2.28826 34.2259 5.10013 34.2259H36.0063C38.8181 34.2259 41.1064 31.7248 41.1064 28.6506V6.34946C41.1064 3.27524 38.8181 0.77417 36.0063 0.77417Z" fill="#C0C0C0"/>
<path d="M29.3619 39.8012H26.4257V33.1108C26.4257 32.4953 25.9882 31.9958 25.447 31.9958C24.9057 31.9958 24.4682 32.4953 24.4682 33.1108V39.8012H16.6385V33.1108C16.6385 32.4953 16.201 31.9958 15.6597 31.9958C15.1185 31.9958 14.681 32.4953 14.681 33.1108V39.8012H11.7448C11.2036 39.8012 10.7661 40.3007 10.7661 40.9162C10.7661 41.5318 11.2036 42.0313 11.7448 42.0313H29.3619C29.9031 42.0313 30.3406 41.5318 30.3406 40.9162C30.3406 40.3007 29.9031 39.8012 29.3619 39.8012Z" fill="#424446"/>
<path d="M43.064 42.0313H27.4044C25.7856 42.0313 24.4683 40.5304 24.4683 38.6861V24.1904C24.4683 22.3461 25.7856 20.8452 27.4044 20.8452H43.064C44.6828 20.8452 46.0002 22.3461 46.0002 24.1904V38.6861C46.0002 40.5304 44.6828 42.0313 43.064 42.0313ZM27.4044 23.0753C26.8642 23.0753 26.4257 23.5749 26.4257 24.1904V38.6861C26.4257 39.3017 26.8642 39.8012 27.4044 39.8012H43.064C43.6043 39.8012 44.0427 39.3017 44.0427 38.6861V24.1904C44.0427 23.5749 43.6043 23.0753 43.064 23.0753H27.4044Z" fill="#424446"/>
<path d="M27.4044 23.0753C26.8642 23.0753 26.4257 23.5749 26.4257 24.1904V38.6861C26.4257 39.3017 26.8642 39.8012 27.4044 39.8012H43.064C43.6043 39.8012 44.0427 39.3017 44.0427 38.6861V24.1904C44.0427 23.5749 43.6043 23.0753 43.064 23.0753H27.4044Z" fill="white"/>
<path d="M38.1704 28.6506H32.2981C31.7568 28.6506 31.3193 28.1522 31.3193 27.5356C31.3193 26.9189 31.7568 26.4205 32.2981 26.4205H38.1704C38.7116 26.4205 39.1491 26.9189 39.1491 27.5356C39.1491 28.1522 38.7116 28.6506 38.1704 28.6506Z" fill="#424446"/>
</g>
<defs>
<clipPath id="clip0_13_3306">
<rect width="46" height="41.2571" fill="white" transform="translate(0 0.77417)"/>
</clipPath>
</defs>
</svg>
